<?xml version="1.0" encoding="UTF-8" standalone="no"?>
<svg
        xmlns:dc="http://purl.org/dc/elements/1.1/"
        xmlns:cc="http://creativecommons.org/ns#"
        xmlns:rdf="http://www.w3.org/1999/02/22-rdf-syntax-ns#"
        xmlns="http://www.w3.org/2000/svg"
        version="1.1"
        id="svg2"
        height="927.22308"
        width="1137.3628">
  <defs
     id="defs4" />
  <metadata
     id="metadata7">
    <rdf:RDF>
      <cc:Work
         rdf:about="">
        <dc:format>image/svg+xml</dc:format>
        <dc:type
           rdf:resource="http://purl.org/dc/dcmitype/StillImage" />
        <dc:title></dc:title>
        <cc:license
           rdf:resource="http://creativecommons.org/publicdomain/zero/1.0/" />
      </cc:Work>
      <cc:License
         rdf:about="http://creativecommons.org/publicdomain/zero/1.0/">
        <cc:permits
           rdf:resource="http://creativecommons.org/ns#Reproduction" />
        <cc:permits
           rdf:resource="http://creativecommons.org/ns#Distribution" />
        <cc:permits
           rdf:resource="http://creativecommons.org/ns#DerivativeWorks" />
      </cc:License>
    </rdf:RDF>
  </metadata>
  <g
     transform="translate(-562.32179,433.92445)"
     id="layer1">
    <g
       id="g3007">
      <g
         id="g1148">
        <path
           d="m 1360.6304,-292.09044 c 45.9303,45.93496 36.7492,69.30016 47.4643,89.62813 18.5157,-0.84504 101.551,22.76825 129.7888,39.78359 71.8986,26.04595 124.1863,93.101179 98.739,153.879938 -26.3343,46.577988 -84.9264,76.652561 -142.591,97.052276 C 1323.3021,141.81789 1131.2346,140.50033 950.68825,114.05488 856.87671,111.78248 767.44705,82.804794 686.6036,46.01979 623.60317,33.819511 575.11059,-12.305132 567.53105,-62.017787 c -10.86458,-61.000873 53.3327,-109.045883 118.19072,-131.952643 61.95452,-18.83664 117.4532,-37.13127 161.29059,-36.66859 8.34512,-27.501 16.87754,-69.45174 81.85013,-109.52868 64.97261,-40.07695 115.44441,-80.91436 201.19871,-89.67546 20.3635,-0.71933 63.3978,3.28533 83.3763,14.00588 52.0224,41.89365 101.3584,77.57611 147.1929,123.74684 z"
           style="fill:#000000;fill-rule:evenodd;stroke-width:0.99999994"
           id="path1014" />
        <path
           style="fill:#000000;stroke:none"
           d="M 768.43169,-53.222306 C 599.66854,-291.73013 808.51308,-468.14891 979.52859,-177.06583"
           id="path993" />
        <path
           style="fill:#000000;stroke:none"
           d="m 1351.0591,-199.58283 c 245.4987,-249.62382 309.5328,121.039522 160.4337,237.83584"
           id="path995" />
        <path
           style="fill:#000000;fill-opacity:1;stroke:none"
           d="m 1117.1892,344.08675 c 118.4846,-77.03944 270.4298,-104.91911 385.1115,-95.53154 -152.8999,-1.67689 -255.1258,30.15114 -374.9115,104.98518"
           id="path983" />
        <path
           style="fill:#000000;fill-opacity:1;stroke:none"
           d="m 1148.5355,358.01844 c 227.5126,-64.91627 401.5953,-47.37539 498.7629,-24.69194 -149.1851,-25.99922 -329.7673,-15.84318 -495.9996,31.42308"
           id="path985" />
        <path
           style="fill:#000000;fill-opacity:1;stroke:none"
           d="m 1167.9403,371.45257 c 263.0535,-52.95467 363.604,-21.59162 492.7275,-5.05423 -166.8515,-30.70724 -331.0155,-27.13603 -492.5593,9.85118"
           id="path987" />
        <path
           style="fill:#000000;fill-opacity:1;stroke:none"
           d="m 1170.4281,382.39889 c 143.66,-14.32534 267.3193,11.35046 394.5652,29.85361 -134.4755,-17.593 -269.8567,-37.79034 -394.0676,-25.87314"
           id="path989" />
        <path
           style="fill:#000000;fill-opacity:1;stroke:none"
           d="m 1179.3842,395.83302 c 92.634,-4.13463 206.039,18.04071 317.9408,38.31211 -108.1697,-14.93371 -219.374,-33.50879 -314.9554,-33.33651"
           id="path991" />
        <path
           style="fill:#000000;stroke:none"
           d="m 934.51286,212.4647 c -49.92688,58.39349 -94.14942,108.60212 -80.92048,187.87625 16.69233,100.02841 132.7706,105.62142 208.98592,66.14367 48.6796,-19.08705 100.5347,-28.91717 151.2861,-40.81205 -22.2165,-44.13825 -51.9946,-60.24352 -90.068,-90.77167 l 4.222,-33.07183 -43.6267,-18.99873 11.9621,-34.47916 -42.2194,-3.51829 -0.7036,-44.33035 c -23.3987,22.45996 -26.523,22.4656 -56.29254,29.55357 -4.783,-22.71673 -10.70156,-43.29769 -23.22064,-62.62541 11.1687,12.14922 -28.86909,77.69116 -33.07184,67.551 -2.11097,-7.03655 -6.33292,-22.517 -6.33292,-22.517 z"
           id="path981" />
        <path
           id="path3941"
           d="M 764.93169,-45.222306 C 596.16854,-283.73013 805.01308,-460.14891 976.02859,-169.06583"
           style="fill:#ffffff;stroke:none" />
        <path
           id="path3947"
           d="m 1347.5591,-191.58283 c 245.4987,-249.62382 309.5328,121.039522 160.4337,237.83584"
           style="fill:#ffffff;stroke:none" />
        <path
           id="path3949"
           d="m 771.96826,-48.036929 c -85.80628,-131.495911 -79.50353,-293.067561 74.58756,-237.835841 -5.66666,65.77292 31.34106,101.89847 67.55102,153.39707"
           style="fill:#050505;fill-opacity:1;stroke:none" />
        <path
           id="path3951"
           d="m 1374.2981,-177.5097 c 184.1657,-193.19245 266.51,47.30635 108.363,192.801825"
           style="fill:#050505;fill-opacity:1;stroke:none" />
        <path
           id="path3936"
           d="M 1179.9746,-276.87589 C 1050.3376,-277.09094 919.61822,-189.63296 804.829,-81.391377 719.71267,-1.1301411 698.08775,1.898587 572.15625,143.33885 l 1.47768,0.12314 C 708.1838,369.06815 839.765,438.51876 1102.7043,444.53894 c 262.9393,6.02017 405.5007,-29.60152 572.7849,-188.71183 l 1.3548,0.12314 c -0.089,-0.39019 -0.1576,-0.78098 -0.2463,-1.16983 0,-0.002 0.2463,-0.24628 0.2463,-0.24628 l -0.3696,-0.18461 C 1644.2296,115.43099 1532.7071,61.248923 1518.6707,-7.6306053 1415.1718,-203.78646 1298.0022,-276.68011 1179.9746,-276.87589 Z"
           style="fill:#2f2f2f;fill-opacity:1;stroke:none" />
        <path
           id="path3943"
           d="M 953.51159,34.994501 C 942.53394,100.08343 868.95848,118.05353 811.37301,99.730895 l 21.1097,23.924305 c -46.17388,5.35861 -74.78678,2.76964 -118.21428,-7.03657 l 33.77551,30.96089 c -52.16551,5.08396 -103.24828,-4.5338 -154.80439,-11.25851 86.10149,-78.142742 199.79429,-129.2460767 291.31372,-170.284827 45.63106,21.76165 144.14073,0.968431 192.30673,-66.490183 -16.8941,56.389149 -90.4109,204.64342 -98.01679,257.8847 l -9.85119,-45.03399 C 948.95967,84.746056 954.40625,68.992193 953.51159,34.994501 Z"
           style="fill:#ffffff;stroke:none" />
        <path
           id="path3945"
           d="m 1095.6795,-102.78572 c -17.4211,55.220328 -40.5091,220.0117 -38.0268,277.10418 18.4478,-55.09449 24.2088,-46.05421 75.9949,-73.18026 -14.3849,-31.597828 7.2284,-28.445447 36.5901,-46.441322 -3.8209,19.383336 -12.7775,33.650437 -23.9243,49.255942 37.7777,38.39225 113.1958,54.2568 149.1752,45.03402 -23.1413,30.85088 28.4728,36.00575 49.4042,41.66343 64.562,17.21838 129.761,14.94372 199.6901,16.03637 -52.1264,-54.59428 -109.0672,-82.52697 -178.7287,-106.955745 -15.5485,-71.339783 -30.1071,-75.924704 -95.6973,-94.2899586 -28.6059,-58.3106614 -36.5234,-44.4447394 -90.068,-18.2950554 -43.5886,50.324933 -67.4274,-10.728141 -84.4094,-89.931601 z"
           style="fill:#ffffff;stroke:none" />
        <path
           id="path3953"
           d="m 934.51286,202.4647 c -49.92688,58.39349 -94.14942,108.60212 -80.92048,187.87625 16.69233,100.02841 132.7706,105.62142 208.98592,66.14367 48.6796,-19.08705 100.5347,-28.91717 151.2861,-40.81205 -22.2165,-44.13825 -51.9946,-60.24352 -90.068,-90.77167 l 4.222,-33.07183 -43.6267,-18.99873 11.9621,-34.47916 -42.2194,-3.51829 -0.7036,-44.33035 c -23.3987,22.45996 -26.523,22.4656 -56.29254,29.55357 -4.783,-22.71673 -10.70156,-43.29769 -23.22064,-62.62541 11.1687,12.14922 -28.86909,77.69116 -33.07184,67.551 -2.11097,-7.03655 -6.33292,-22.517 -6.33292,-22.517 z"
           style="fill:#ffffff;stroke:none" />
        <path
           id="path3955"
           d="m 928.17995,307.3095 c -17.82646,16.26689 -38.07819,28.75335 -58.40346,41.51572 -10.11703,33.29137 -7.64259,50.20367 4.92559,81.62413 27.06139,13.21322 95.89716,31.13356 118.21426,-0.70365 7.15166,-14.54041 20.97026,-57.70658 12.66586,-71.77296 -20.9766,-9.6345 -8.94193,-40.86649 -18.99877,-44.33035 -11.25849,-3.51827 -58.40348,-6.33289 -58.40348,-6.33289 z"
           style="fill:#000000;stroke:none" />
        <path
           id="path3957"
           d="m 1123.0928,208.09397 c 16.7095,-66.96259 54.928,-71.29008 113.9923,-49.95962 4.0147,71.35163 -59.7839,79.26148 -113.9923,49.95962 z"
           style="fill:none;stroke:#ffffff;stroke-width:4.33452272;stroke-linecap:butt;stroke-linejoin:round;stroke-miterlimit:4;stroke-dasharray:none;stroke-dashoffset:0;stroke-opacity:1" />
        <path
           id="path3961"
           d="m 870.48014,132.09908 c -17.76556,60.86888 17.64984,69.82327 68.95832,56.99616 1.82515,-40.94112 -25.34358,-80.78605 -68.95832,-56.99616 z"
           style="fill:none;stroke:#ffffff;stroke-width:4.33452272;stroke-linecap:butt;stroke-linejoin:round;stroke-miterlimit:4;stroke-dasharray:none;stroke-dashoffset:0;stroke-opacity:1" />
        <ellipse
           id="path3963"
           style="color:#000000;display:inline;overflow:visible;visibility:visible;fill:#ffffff;fill-opacity:1;stroke:none;stroke-width:0.30000001;marker:none;enable-background:accumulate"
           transform="matrix(1.9702377,0,0,1.9702377,-555.12754,-465.03359)"
           cx="738.39288"
           cy="308.07648"
           rx="4.8214288"
           ry="2.5" />
        <ellipse
           id="path3965"
           style="color:#000000;display:inline;overflow:visible;visibility:visible;fill:#ffffff;fill-opacity:1;stroke:none;stroke-width:0.30000001;marker:none;enable-background:accumulate"
           transform="matrix(1.9702377,0,0,1.9702377,-555.12754,-465.03359)"
           cx="881.07141"
           cy="320.21933"
           rx="7.5"
           ry="2.8571429" />
        <ellipse
           id="path3967"
           style="color:#000000;display:inline;overflow:visible;visibility:visible;fill:#b3b3b3;fill-opacity:1;stroke:none;stroke-width:0.30000001;marker:none;enable-background:accumulate"
           transform="matrix(1.9702377,0,0,1.9702377,-555.12754,-465.03359)"
           cx="754.28571"
           cy="411.64789"
           rx="12.142858"
           ry="6.4285712" />
        <path
           id="path3969"
           d="m 1113.6892,340.58675 c 118.4846,-77.03944 270.4298,-104.91911 385.1115,-95.53154 -152.8999,-1.67689 -255.1258,30.15114 -374.9115,104.98518"
           style="fill:#ffffff;fill-opacity:1;stroke:none" />
        <path
           id="path3971"
           d="m 1145.0355,354.51844 c 227.5126,-64.91627 401.5953,-47.37539 498.7629,-24.69194 -149.1851,-25.99922 -329.7673,-15.84318 -495.9996,31.42308"
           style="fill:#ffffff;fill-opacity:1;stroke:none" />
        <path
           id="path3973"
           d="m 1164.4403,367.95257 c 263.0535,-52.95467 363.604,-21.59162 492.7275,-5.05423 -166.8515,-30.70724 -331.0155,-27.13603 -492.5593,9.85118"
           style="fill:#ffffff;fill-opacity:1;stroke:none" />
        <path
           id="path3975"
           d="m 1166.9281,378.89889 c 143.66,-14.32534 267.3193,11.35046 394.5652,29.85361 -134.4755,-17.593 -269.8567,-37.79034 -394.0676,-25.87314"
           style="fill:#ffffff;fill-opacity:1;stroke:none" />
        <path
           id="path3977"
           d="m 1175.8842,392.33302 c 92.634,-4.13463 206.039,18.04071 317.9408,38.31211 -108.1697,-14.93371 -219.374,-33.50879 -314.9554,-33.33651"
           style="fill:#ffffff;fill-opacity:1;stroke:none" />
        <path
           id="path3979"
           d="m 891.06538,314.577 c -28.58055,-40.45555 -72.65894,-80.91111 -111.52904,-121.36667 36.97994,41.78214 82.48406,81.86742 107.02283,126.12616"
           style="fill:#ffffff;fill-opacity:1;stroke:none;stroke-width:1" />
        <path
           id="path3981"
           d="M 882.9203,318.1154 C 798.64357,245.711 703.15537,201.72637 613.27274,143.53224 702.09436,202.84328 793.055,253.11738 879.73392,321.48087"
           style="fill:#ffffff;fill-opacity:1;stroke:none;stroke-width:1" />
        <path
           id="path3983"
           d="M 875.75093,323.16359 C 803.52635,265.32962 720.00307,233.06785 641.15357,190.22798 c 79.48425,44.94985 168.55768,85.17322 233.80077,137.14245"
           style="fill:#ffffff;fill-opacity:1;stroke:none;stroke-width:1" />
        <path
           id="path3985"
           d="m 873.75945,330.73589 c -83.90804,-58.96114 -167.8161,-95.3618 -251.72416,-143.032 83.6481,49.49244 173.647,90.04122 250.92755,148.50087"
           style="fill:#ffffff;fill-opacity:1;stroke:none;stroke-width:1" />
        <path
           id="path3987"
           d="M 870.17477,343.35635 C 794.283,282.30127 722.99471,262.8844 661.86507,240.70986 c 50.96867,18.1492 147.88738,57.20148 207.9114,108.11537"
           style="fill:#ffffff;fill-opacity:1;stroke:none;stroke-width:1" />
        <path
           id="path3989"
           d="m 871.76797,371.96276 c -73.737,-28.58169 -145.08592,-46.62444 -221.45356,-62.68169 75.6089,13.38502 146.84523,42.46442 219.06377,68.57123"
           style="fill:#ffffff;fill-opacity:1;stroke:none;stroke-width:1" />
        <path
           id="path1330"
           style="fill:#ffffff;fill-rule:evenodd;stroke-width:0.99999994"
           d="m 1377.7974,-286.82089 c 45.9303,45.93496 36.7492,69.30016 47.4643,89.62813 18.5157,-0.84504 101.551,22.76825 129.7888,39.78359 71.8986,26.04595 124.1863,93.101179 98.739,153.8799379 C 1627.4552,43.048756 1568.8631,73.123329 1511.1985,93.523044 1340.4691,147.08744 1149.1159,153.26988 968.56951,126.82443 874.75797,124.55203 784.07831,90.217201 703.23486,53.432197 642.02014,34.446204 592.27756,-7.0355825 584.69802,-56.748237 c -10.86458,-61.000873 53.3327,-109.045883 118.19072,-131.952643 61.95452,-18.83664 117.4532,-37.13127 161.29059,-36.66859 8.34512,-27.501 16.87754,-69.45174 81.85013,-109.52868 64.97264,-40.07695 115.44444,-80.91436 201.19874,-89.67546 20.3635,-0.71933 63.3978,3.28533 83.3763,14.00588 52.0224,41.89365 101.3584,77.57611 147.1929,123.74684 z" />
        <path
           id="path29982"
           style="fill:#000000;fill-rule:evenodd;stroke:none;stroke-width:0.99999994px"
           d="m 829.59149,-104.35593 c 1.52279,4.526872 29.60259,-22.62825 32.79455,-22.63951 6.67798,1.12895 6.23516,6.68413 6.23516,6.68413 -5.36859,-8.49626 -33.18487,27.366172 -38.44478,24.368215 -7.37005,-4.213485 -0.58493,-8.412835 -0.58493,-8.412835 z m 35.87318,46.390399 c 11.23114,5.007913 35.38607,-18.227846 50.05106,-33.38665 4.29893,-0.620609 6.40175,3.582622 11.15924,5.889192 -7.58803,-1.516143 -43.64368,34.825643 -49.85749,34.48024 -5.73027,-1.222526 -7.95752,-4.51992 -11.35281,-6.982782 z m 575.47603,-5.162955 c -20.6001,1.4395 -50.7374,-14.49111 -74.8359,-24.362331 -5.7598,2.2868 -8.17,6.498545 -13.9293,8.77197 12.8288,-3.084053 51.0799,14.103742 77.0972,23.641422 3.8581,-1.952528 7.8104,-6.111908 11.668,-8.051061 z m -141.8926,58.546008 c -17.6634,-1.4366737 -67.275,-31.463025 -104.3197,-47.567633 -7.0415,0.959213 -9.5084,1.671355 -16.55,2.630568 14.7101,-0.524972 62.9076,32.080712 102.6053,49.14261676 4.3891,-1.92988436 13.8759,-2.28904226 18.2644,-4.20555176 z M 988.1949,-15.21358 c -25.9286,-3.57126 -97.17887,56.5672 -148.85796,80.250404 l 6.24197,5.317701 c 52.22829,-24.088555 83.16068,-57.781413 135.38897,-81.869968 -2.63537,-1.371918 9.8624,-2.32622 7.22702,-3.698137 z m 32.9555,7.3815313 c -2.1854,32.3328247 -14.3774,71.5816367 -16.5628,103.9144627 4.8573,-0.436006 9.7311,-0.857907 14.605,-1.279808 -0.257,-31.793825 8.7231,-72.573139 8.4656,-104.3535894 -2.4321,-0.1037241 -4.0757,1.8226587 -6.5078,1.7189347 z m -38.15059,-2.2434193 c 7.78029,-2.187231 10.1409,-4.833388 17.92179,-7.033994 2.2328,1.153764 4.4834,2.294883 6.7163,3.448647 -8.85132,2.355941 -12.81793,4.4378353 -21.07326,5.2916864 -1.7584,0.1929912 -2.40298,-0.3838656 -3.56483,-1.7063394 z m 17.96599,1.1815945 c 3.3135,-1.6541755 6.6093,-3.2957065 9.9229,-4.9498825 -1.5655,-1.111902 -3.1476,-2.237908 -4.713,-3.349809 2.8488,-0.41447 5.8397,-1.747423 8.5453,-1.21666 4.9179,0.960092 9.5338,3.769794 14.3089,5.661744 -7.2635,2.9462224 -14.905,7.913006 -21.8084,8.8513125 -2.4509,0.3376462 -4.1649,-3.3264349 -6.2557,-4.996705 z M 955.31145,-19.054653 c 5.04224,-1.151674 9.40689,-0.09458 14.4497,-1.259632 8.41529,1.832808 17.49048,1.469494 25.88864,3.301571 -4.51641,1.696668 -31.41434,0.335132 -40.33834,-2.041939 z m 71.67065,6.848597 25.1655,7.3842777 c -4.3475,0.5515435 -9.2972,2.7523003 -13.0082,1.6560914 -4.6775,-1.3652171 -8.0991,-6.0266695 -12.1573,-9.0403691 z M 829.63038,66.52554 c 2.3538,-1.681706 1.37346,-4.041575 3.8518,-3.41331 5.99177,1.528461 13.79981,8.748641 14.92006,12.253408 0.72857,2.228539 -1.86168,1.407912 -6.1463,3.302055 -4.20319,-4.038225 -8.42294,-8.090554 -12.62556,-12.142153 z m -6.43804,3.303011 2.95553,-2.111615 c 4.3722,4.501004 10.24013,7.72588 14.62946,12.227615 -2.29733,0.357595 -6.08983,1.977943 -8.38659,2.322164 -3.06594,-4.150513 -6.13246,-8.287651 -9.1984,-12.438164 z m 0.70464,3.594235 c -2.94468,2.25947 -9.19847,1.242403 -12.16027,3.501142 1.29772,0.953091 3.37593,3.72156 4.67422,4.661276 1.977,-1.697776 6.5231,-3.285985 8.50067,-4.997136 -0.31348,-1.500679 -0.70114,-1.664603 -1.01462,-3.165282 z m 178.03612,28.576054 c 0,0 -6.62279,-5.642127 -3.7437,-5.961512 2.862,-0.320116 21.9085,-3.956342 27.5195,-1.948351 1.8081,0.653277 0.619,3.590583 0.9194,5.398884 -8.2376,0.841209 -16.4582,1.683139 -24.6952,2.510979 z m -0.2664,6.24606 c -1.4798,-0.3043 0.5034,-2.95315 0.7551,-4.42973 7.6662,-0.71819 15.3152,-1.4371 22.9643,-2.15602 -0.095,2.2336 1.8328,6.1078 -0.2852,6.68743 -5.7827,1.61586 -17.3602,1.1087 -23.4342,-0.10168 z m 8.4878,2.14408 c 0.093,2.24163 0.1869,4.46989 0.28,6.71153 l 5.6846,0.68461 c -0.8348,-2.55465 -1.6861,-5.1234 -2.5203,-7.69142 -1.1538,0.0982 -2.3076,0.19636 -3.4443,0.29528 z" />
        <path
           style="opacity:1;fill:#000200;fill-opacity:1;fill-rule:evenodd;stroke-width:0.99999994"
           d="M 609.93945 8.0214844 C 593.11385 47.855364 526.89803 120.85467 487.23633 232.80859 C 450.00363 337.93317 307.36242 384.58573 303.41797 383.71289 C 329.08449 401.66271 390.39491 421.67344 465.66797 438.72266 C 466.08669 436.51266 466.47614 435.11513 466.81641 434.88477 C 467.23975 434.59648 467.58252 436.24081 467.86328 439.20898 C 552.25755 458.19246 653.80271 473.4228 742.34375 477.88477 C 894.80645 458.27678 1081.5632 454.46641 1086.4746 420.96484 C 1090.478 393.61749 987.66072 338.43015 962.60742 306.31055 C 924.33822 291.60439 897.83354 289.04498 876.18164 284.87109 C 874.61214 157.64205 701.95615 22.968984 609.93945 8.0214844 z M 465.66797 438.72266 C 464.8101 443.25049 463.81686 451.41761 462.81055 461.11523 L 465.66797 438.72266 z M 560.16406 34.613281 C 512.1914 35.432455 392.06697 93.503858 349.01172 153.11133 C 372.80272 200.72232 443.96908 70.153532 499.02148 103.77539 C 513.22808 112.45122 538.12937 58.766994 564.57617 34.714844 C 563.18383 34.620247 561.71157 34.586856 560.16406 34.613281 z M 939.68555 254.75586 C 1328.1447 437.33608 910.87812 598.92311 476.87695 562.25195 L 476.79297 562.30469 L 452.05078 560.48047 L 452.33398 559.97461 C 314.0832 545.90446 175.64318 511.42579 62.455078 450.78516 C 569.76982 771.44988 1549.4441 468.84792 939.68555 254.75586 z M 420.29492 427.99023 L 420.35352 428.09961 C 420.36515 428.04276 420.34521 428.00595 420.29492 427.99023 z "
           transform="translate(562.32179,-433.92445)"
           id="path1328" />
        <path
           id="path1350"
           style="opacity:0.25;fill:#000000;fill-rule:evenodd;stroke:#000000;stroke-width:0.25883999px"
           d="m 1108.6138,-209.95357 c 21.6801,-68.20178 55.5554,-153.59718 87.429,-161.48326 22.7171,-5.61552 130.3325,74.51066 171.9032,131.34082 27.6258,-0.81828 -119.6684,-149.54686 -172.3285,-141.08275 -47.2004,7.58348 -98.4196,158.88406 -87.0038,171.2292 z" />
        <path
           id="path8988"
           style="opacity:0.25;fill:#ffffff;fill-rule:evenodd;stroke-width:0.99999994"
           d="m 1124.0423,-385.43724 c 29.9619,-33.06429 -59.3937,113.2453 -94.3826,161.99065 -6.819,14.24729 -33.04531,20.06957 -41.62378,5.56757 -9.01182,-15.20384 24.36448,-8.03215 36.70818,-22.67359 28.8074,-34.15866 83.4112,-136.07556 99.2982,-144.88463 z m 37.3195,-36.60679 c -51.7732,4.5666 -179.54247,59.44997 -250.39786,125.21551 -21.50817,23.9382 -41.43919,86.53332 -48.09828,102.26135 -9.25707,21.92824 -6.772,34.46867 -12.98959,39.84456 -11.5202,5.39092 -14.5795,11.14269 -13.85596,16.30544 0.72296,5.17612 -4.63439,-23.69982 8.04628,-34.17315 12.66412,-10.48742 9.54208,-3.26442 9.54208,-3.26442 0,0 29.67245,-93.86874 36.41282,-103.85845 45.18589,-66.96346 233.35831,-159.78855 271.34051,-142.33084 z M 864.17933,-225.36947 C 542.74957,-170.25967 591.30257,-65.122437 598.06007,-28.844026 576.47736,-167.50812 745.30355,-200.10356 864.17933,-225.36947 Z" />
        <path
           id="path18735"
           style="opacity:1;fill:#000000;fill-rule:evenodd;stroke-width:0.99999994"
           d="m 867.60842,-119.89893 3.07971,5.8394 -35.56802,22.896397 -4.41564,-5.896372 32.33373,-25.111215 z m 53.79413,32.93816 -44.66964,33.937738 9.70799,6.122082 47.31926,-33.302169 z m 65.16095,78.6183912 4.53085,2.7926747 15.94555,0.6800499 c 0,0 -4.9016,5.49900685 0.425,5.72617714 5.3095,0.22643986 18.9151,-6.99162794 18.9151,-6.99162794 0,0 0.9994,-7.742305 -1.6998,-6.812286 -2.6987,0.916644 -18.2638,7.0060103 -18.2638,7.0060103 l -1.5886,-9.4203833 z" />
        <path
           id="path1348"
           style="opacity:1;fill:#000000;fill-rule:evenodd;stroke-width:0.99999994"
           d="m 1102.3223,-381.87752 c -27.7498,-9.55126 -154.50019,65.29479 -189.26781,104.82826 34.91947,-22.97766 158.71411,-94.50082 189.26781,-104.82826 z m 93.2538,-2.354 c -9.1909,0.26057 -61.6988,60.67847 -80.2348,122.75021 -28.9873,97.11376 61.5349,44.14843 118.3904,18.58232 23.9493,-10.76989 111.0254,25.51717 132.6703,11.24562 42.831,-28.24111 -112.0756,-156.59259 -170.8261,-152.5728 z M 850.71104,-160.6215 C 871.81978,-25.126433 1365.9164,-1.4010434 1437.3337,-143.91057 1409.5723,1.7069296 828.07229,-18.443507 850.71104,-160.6215 Z" />
        <path
           id="path20841"
           style="opacity:0.75;fill:#000000;fill-rule:evenodd;stroke-width:0.99999994"
           d="m 1428.2069,-160.0385 c -0.946,0.0534 -1.2462,2.26491 -0.2277,2.52274 1.0185,0.25782 1.3113,-2.58372 0.2277,-2.52274 z m -3.0183,3.18088 c 1.8161,-0.7399 1.454,-3.51558 -0.491,-2.16482 -0.6543,0.45447 -0.6091,2.61367 0.491,2.16482 z m -4.6398,-2.24796 c -2.1638,0.0417 -2.0404,3.18238 -0.2357,3.11196 2.5959,-0.11708 1.0258,-3.13186 0.2357,-3.11196 z m -6.2183,2.57543 c 2.0353,0.95775 2.138,-2.25368 0.7267,-2.55505 -1.1561,-0.2503 -2.4423,1.74492 -0.7267,2.55505 z m 4.4182,-17.4985 c -2.3642,-0.89138 -2.0906,3.55542 0.1172,3.68977 3.1834,0.18937 1.4026,-3.11578 -0.1172,-3.68977 z m -9.522,5.61014 c -1.1641,0.74091 0.011,4.16761 2.2341,2.73492 1.4112,-0.90456 -0.5403,-3.82841 -2.2341,-2.73492 z m -0.434,12.59012 c 3.4015,-0.0961 2.3852,-2.41732 0.6119,-3.08251 -1.9931,-0.74156 -3.9957,3.16599 -0.6119,3.08251 z m 2.4986,8.60165 c 1.7207,-0.11421 2.9133,-2.72978 0.258,-2.82963 -2.8443,-0.0945 -2.6158,2.99705 -0.258,2.82963 z m 8.0157,1.54778 c -2.6519,-0.1801 -1.8868,3.20233 0.5099,2.52739 1.4238,-0.39485 0.7221,-2.44805 -0.5099,-2.52739 z m 8.3312,-2.63271 c 1.5894,0.14818 1.1645,-2.36219 -0.418,-2.26889 -1.4285,0.0999 -2.0604,2.0426 0.418,2.26889 z m -0.5546,-19.98844 c -1.0019,0.15826 -0.9984,3.6958 0.881,2.27524 1.2406,-0.92523 1.1058,-2.59248 -0.881,-2.27524 z m -12.1968,3.95516 c -1.1595,-0.17004 -1.3718,2.79552 0.6264,1.80881 1.1218,-0.55512 0.2603,-1.6772 -0.6264,-1.80881 z m 5.093,-2.74401 c 1.3337,0.11047 1.9738,2.40223 -0.3556,2.30289 -2.158,-0.092 -0.5162,-2.38027 0.3556,-2.30289 z m 3.3298,6.01085 c -0.5772,-0.14521 -0.9792,-2.38662 0.556,-2.17375 2.2009,0.29485 0.2244,2.38122 -0.556,2.17375 z m -8.041,6.69164 c -1.1864,0.0566 -1.1394,3.78357 0.8422,2.78275 1.6836,-0.85274 -0.034,-2.82867 -0.8422,-2.78275 z m 4.8231,2.77834 c -1.0978,-0.007 -1.3775,2.92927 0.5391,2.24725 1.8468,-0.65819 0.9025,-2.25277 -0.5391,-2.24725 z m 3.5813,-2.70129 c -2.447,0.24402 0.3238,3.67178 1.0836,1.54692 0.3317,-0.9372 0.1056,-1.6704 -1.0836,-1.54692 z" />
        <path
           d="m 842.58498,-173.60651 c -25.31987,15.86189 -12.27102,49.67384 -21.54864,71.55932 -3.51693,27.193204 33.88725,53.230451 92.55263,77.22465 61.00901,24.95969992 259.81063,33.284533 302.39083,31.8525016 42.5796,-1.4187308 123.4503,-16.6835062 157.871,-33.5052196 32.7377,-15.987007 35.2473,-18.092476 55.3633,-34.641434 7.7118,-16.582021 11.85,-55.861048 -1.7309,-75.264898 -15.046,24.75883 -10.9226,17.03215 -22.6396,26.58206 -14.2891,22.312526 -44.3637,33.415703 -72.9991,41.768398 -99.7833,29.759464 -211.4886,35.441843 -316.7475,16.04065 -56.27847,-10.434982 -115.88666,-25.248446 -156.13372,-59.814168 -20.01677,-17.37161 -16.63953,-39.70721 -16.3783,-61.80186 z"
           style="opacity:1;fill:#000000;fill-rule:evenodd;stroke-width:0.99999994"
           id="path1016" />
        <path
           id="path1338"
           style="fill:#ffffff;fill-rule:evenodd;stroke-width:0.99999994"
           d="m 852.58498,-179.61666 c -25.31987,15.95051 -12.27102,49.95139 -21.54864,71.95915 -3.51693,27.345141 33.88725,53.527868 92.55263,77.656132 61.00901,25.099159 259.81063,33.470506 302.39083,32.030473 42.5796,-1.426657 123.4503,-16.776723 157.871,-33.692426 32.7377,-16.076332 35.2473,-18.193565 55.3633,-34.834989 7.7118,-16.674671 11.85,-56.17317 -1.7309,-75.68543 -15.046,24.89717 -10.9226,17.12731 -22.6396,26.73058 -14.2891,22.437197 -44.3637,33.602412 -72.9991,42.001777 -99.7833,29.925741 -211.4886,35.63987 -316.7475,16.130275 -56.27847,-10.493286 -115.88666,-25.389519 -156.13372,-60.148372 -20.01677,-17.46867 -16.63953,-39.92907 -16.3783,-62.14717 z" />
        <path
           style="fill:#000000;stroke:#000000;stroke-width:1px;stroke-linecap:butt;stroke-linejoin:miter;stroke-opacity:1"
           d="m 924.26201,-329.24874 c -46.13109,24.9093 -55.93658,65.94183 -71.04262,105.34361 -1.10132,2.87262 -11.52727,32.44148 -13.8487,57.44148 5.35715,-4.64286 15.32023,-40.59883 21.21231,-59.67014 5.89209,-19.07131 16.79266,-44.59323 30.07252,-60.22757 13.27986,-15.63434 23.22404,-31.55752 33.60649,-42.88738 z"
           id="path1020" />
        <path
           style="fill:#000000;stroke:none;stroke-width:1px;stroke-linecap:butt;stroke-linejoin:miter;stroke-opacity:1"
           d="m 703.04911,-199.33231 17.23214,-5.20834 -2.5,11.21116 -14.01786,4.41384 -3.75,-4.32556 z"
           id="path1022" />
        <ellipse
           cy="51.473972"
           cx="1014.0936"
           id="circle1028"
           style="opacity:1;vector-effect:none;fill:#000000;fill-opacity:1;stroke:none;stroke-width:1.00184071;stroke-linecap:butt;stroke-linejoin:miter;stroke-miterlimit:4;stroke-dasharray:none;stroke-dashoffset:0;stroke-opacity:1;paint-order:fill markers stroke"
           rx="35.397743"
           ry="38.571426"
           transform="matrix(0.99632859,-0.0856116,0,1,0,0)" />
        <ellipse
           style="opacity:1;vector-effect:none;fill:#ffffff;fill-opacity:1;stroke:none;stroke-width:1.00184071;stroke-linecap:butt;stroke-linejoin:miter;stroke-miterlimit:4;stroke-dasharray:none;stroke-dashoffset:0;stroke-opacity:1;paint-order:fill markers stroke"
           id="path1026"
           cx="1013.2742"
           cy="51.116829"
           rx="28.842607"
           ry="31.428572"
           transform="matrix(0.99632859,-0.0856116,0,1,0,0)" />
        <path
           style="fill:#fff300;stroke:none;stroke-width:1px;stroke-linecap:butt;stroke-linejoin:miter;stroke-opacity:1"
           d="m 1007.9214,-61.651634 c -6.9096,5.326824 6.5191,10.152105 6.4494,25.249389 -0.07,15.097311 -10.9177,24.831545 -5.5514,28.2448808 9.0351,5.7468867 26.8765,-13.0261778 27.0631,-29.1558168 0.1866,-16.129638 -17.4681,-32.427809 -27.9611,-24.338453 z"
           id="path1034" />
        <path
           style="fill:#000000;fill-rule:evenodd;stroke:none;stroke-width:0.99999994px"
           d="m 862.38658,-126.99581 c -3.19196,0.0113 -31.27213,27.167489 -32.79492,22.64062 0,0 -6.78606,4.19862 0.58399,8.412109 5.25991,2.99795 33.07672,-32.863439 38.44531,-24.367179 0,0 0.4436,-5.5566 -6.23438,-6.68555 z m 53.91016,35.582029 c -0.25271,0.003 -0.51257,0.0237 -0.78125,0.0625 -14.66499,15.1588 -38.81964,38.39463 -50.05078,33.38672 3.39529,2.46286 5.62129,5.75989 11.35156,6.98242 6.21381,0.3454 42.26939,-35.99661 49.85742,-34.48047 -4.46015,-2.16241 -6.5863,-5.99231 -10.37695,-5.95117 z m 449.80856,3.92383 c -5.7598,2.2868 -8.1704,6.49806 -13.9297,8.77148 12.8288,-3.08405 51.0804,14.10295 77.0977,23.64063 3.8581,-1.95253 7.8104,-6.11162 11.668,-8.05078 -20.6001,1.4395 -50.7375,-14.49011 -74.836,-24.36133 z m -171.3769,35.33984 c -7.0415,0.95921 -9.5092,1.67164 -16.5508,2.63086 14.7101,-0.52498 62.9078,32.08068 102.6055,49.14258 4.3891,-1.92988 13.8771,-2.28857 18.2656,-4.20508 -17.6634,-1.43667 -67.2756,-31.46375 -104.3203,-47.56836 z"
           id="path1046" />
      </g>
      <path
         d="m 1054.4076,-1065.6468 c 29.9619,-33.0643 -59.39374,113.24532 -94.38264,161.99067 -6.819,14.24729 -33.04527,20.06957 -41.62374,5.56757 -9.01182,-15.20384 24.36445,-8.03215 36.70814,-22.67359 28.80745,-34.15866 83.41124,-136.07555 99.29824,-144.88465 z m 37.3195,-36.6068 c -51.7732,4.5666 -179.54247,59.45 -250.39786,125.21554 -21.50817,23.9382 -41.43919,86.53332 -48.09828,102.26135 -9.25707,21.92824 -6.772,34.46867 -12.98959,39.84456 -11.5202,5.39092 -14.5795,11.14269 -13.85596,16.30544 0.72296,5.17612 -4.63439,-23.69982 8.04628,-34.17315 12.66412,-10.48742 9.54208,-3.26442 9.54208,-3.26442 0,0 29.67245,-93.86874 36.41282,-103.85845 45.18589,-66.96347 233.35831,-159.78857 271.34051,-142.33087 z m -297.18247,196.67459 c -321.42976,55.1098 -272.87676,160.24703 -266.11926,196.52544 -21.58271,-138.66409 147.24348,-171.25953 266.11926,-196.52544 z"
         style="opacity:0.25;fill:#ffffff;fill-rule:evenodd;stroke-width:0.99999994"
         id="path1066" />
      <path
         d="m 941.61163,-824.7471 c -14.83965,0.74723 -31.14149,-0.83236 -43.89377,3.2733 -6.65672,18.08638 9.62669,76.82611 14.34938,79.94855 -0.64332,2.6122 -21.2371,-71.33184 -11.61692,-77.63455 12.18303,-5.64404 27.44068,-3.72041 41.16131,-5.5873 z"
         style="opacity:0.75;fill:#ffffff;fill-rule:evenodd;stroke-width:0.99999994"
         id="path1068" />
      <path
         d="m 1108.6137,-209.94956 c 21.6801,-68.20178 55.5554,-153.59718 87.429,-161.48326 22.7171,-5.61552 130.3325,74.51066 171.9032,131.34082 27.6258,-0.81828 -119.6684,-149.54686 -172.3285,-141.08275 -47.2004,7.58348 -98.4196,158.88406 -87.0038,171.2292 z"
         style="opacity:1;fill:#ffffff;fill-rule:evenodd;stroke:none;stroke-width:0.25883999px"
         id="path1172" />
      <path
         id="path1174"
         d="m 1121.4859,-399.31117 c -0.7635,-0.0523 -2.5762,1.45637 -5.6191,4.81445 -15.887,8.8091 -70.4914,110.7261 -99.2989,144.88476 -12.3437,14.64144 -45.71881,7.46804 -36.70701,22.67188 8.5785,14.502 34.80401,8.68088 41.62301,-5.56641 31.4354,-43.79465 106.7557,-166.34245 100.002,-166.80468 z"
         style="opacity:1;fill:#000000;fill-rule:evenodd;stroke-width:0.99999994" />
    </g>
  </g>
</svg>
